<svg version="1.1" id="Layer_1" xmlns="http://www.w3.org/2000/svg" xmlns:xlink="http://www.w3.org/1999/xlink" x="0px" y="0px"
	 width="100%" viewBox="0 0 1024 1024" enable-background="new 0 0 1024 1024" xml:space="preserve">
<path fill="#dc143c" opacity="1.000000" stroke="none"
	d="
M604.010925,887.108215
	C582.253235,900.659546 558.563660,906.498291 533.640259,908.455139
	C507.032654,910.544128 480.680359,909.436523 454.890991,902.133301
	C425.463867,893.799927 402.023743,877.681091 389.357483,848.812744
	C379.590302,826.551758 379.457123,803.565247 385.902161,780.380615
	C389.394104,767.818970 394.506836,755.890991 400.247314,744.210083
	C405.978180,732.548584 411.439606,720.765259 415.828705,708.514832
	C423.684570,686.588196 422.375977,665.048340 413.277771,643.771912
	C405.616364,625.855469 397.552185,608.017761 395.230743,588.400940
	C392.835602,568.161377 395.333099,548.836426 407.479156,531.674255
	C410.948059,526.772827 415.445862,523.203369 421.222534,521.369812
	C427.772217,519.290955 433.257355,522.190979 435.283173,528.753174
	C436.998322,534.309021 436.201935,540.007751 436.210938,545.646729
	C436.229248,557.108887 439.051025,567.785767 445.392761,577.317139
	C452.155914,587.481689 461.093475,593.927429 474.133453,592.868225
	C478.267395,592.532410 481.410095,589.891357 485.484711,588.641846
	C486.812012,593.125854 486.279083,597.413940 486.084137,601.631104
	C485.958954,604.339905 483.330719,604.611816 481.382294,605.444092
	C465.151947,612.376648 453.029144,623.436096 447.191864,640.421082
	C440.979431,658.497620 445.498138,674.882935 455.965759,690.059753
	C464.469971,702.389832 476.156342,711.160217 488.775085,718.854309
	C506.423798,729.615295 525.535034,737.722046 542.977783,748.864441
	C557.412170,758.085083 570.148926,769.110657 577.165039,785.023804
	C587.202148,807.788696 583.223694,829.370056 569.199280,849.279053
	C555.524719,868.691406 536.271912,880.500549 514.198975,888.113159
	C508.270966,890.157654 502.172729,891.708679 494.995819,893.827820
	C521.664856,894.527710 544.678833,887.136780 565.649414,872.940186
	C580.478943,862.900940 591.983765,849.858887 599.325195,833.537231
	C614.911865,798.884338 606.353699,762.574707 577.075745,737.279236
	C560.655151,723.092346 541.723022,712.961121 522.487488,703.305969
	C511.468079,697.774780 500.358398,692.390259 490.362183,685.067932
	C483.586090,680.104370 477.443848,674.478027 473.546661,666.878418
	C465.634796,651.450073 469.775482,632.712646 484.703827,621.385498
	C490.737732,616.807129 494.269867,612.309082 493.354828,604.695496
	C493.120239,602.743713 493.628204,600.714172 493.645233,598.719055
	C494.139496,540.898010 494.554443,483.076233 495.110840,425.255829
	C495.614319,372.937683 496.189636,320.619843 496.966980,268.305359
	C497.054596,262.410217 495.428741,258.584900 490.548218,254.937378
	C478.673462,246.062637 478.340942,249.264694 483.325775,232.673462
	C494.678345,194.888046 505.647491,156.987427 516.771484,119.133347
	C518.226685,114.181488 519.457520,109.122360 522.401123,104.776802
	C528.729248,95.434570 537.631653,90.982658 548.847473,91.758614
	C558.041809,92.394707 564.781738,97.086853 568.912659,105.401756
	C574.642944,116.935791 570.221802,130.605942 558.612915,137.223999
	C549.334656,142.513382 547.187561,147.575531 550.015198,157.839615
	C553.508240,170.519135 556.955566,183.213211 560.643799,195.836380
	C563.578735,205.881409 562.935669,212.684708 553.218689,219.054626
	C542.919373,225.806198 538.033630,235.992203 538.104187,248.855606
	C538.420654,306.517578 537.874634,364.187195 538.544067,421.843536
	C539.265747,484.002716 539.511902,546.166382 538.865723,608.312439
	C538.711426,623.150574 555.633484,636.899841 571.992920,629.943359
	C584.834412,624.482788 590.517151,613.857788 592.646851,600.791443
	C593.128235,597.838196 593.409668,594.844666 593.630432,591.858337
	C594.004211,586.802124 596.070007,582.892456 600.878174,580.809998
	C606.034607,578.576782 610.717712,579.892212 614.921631,583.145691
	C621.244568,588.039246 623.784119,595.070129 625.237915,602.559631
	C628.661804,620.198669 624.459473,636.604065 616.872803,652.406738
	C612.975403,660.524597 609.179199,668.682800 607.360474,677.567993
	C604.471558,691.680664 608.142517,704.612671 614.706726,716.980530
	C621.963623,730.653381 630.926941,743.408813 636.655579,757.904114
	C648.536682,787.967468 649.972595,818.137512 637.275330,848.322205
	C630.414246,864.632690 618.875732,877.102173 604.010925,887.108215
z"/>
<path fill="#dc143c" opacity="1.000000" stroke="none"
	d="
M493.095642,159.540344
	C497.419098,161.979324 499.062683,165.352814 497.542023,169.719452
	C496.188965,173.604858 493.060944,175.498947 489.014252,175.124329
	C485.112274,174.763107 482.753967,172.268433 482.045135,168.427582
	C480.940704,162.443069 485.926941,158.264328 493.095642,159.540344
z"/>
<path fill="#dc143c" opacity="1.000000" stroke="none"
	d="
M475.922394,190.551422
	C475.932922,183.957733 478.974030,180.167725 483.839355,180.164597
	C488.014771,180.161911 491.561890,183.909500 491.498535,188.399933
	C491.442169,192.397003 489.362518,195.080887 485.544250,196.027756
	C481.003265,197.153854 477.747803,195.358612 475.922394,190.551422
z"/>
<path fill="#dc143c" opacity="1.000000" stroke="none"
	d="
M478.112061,227.193390
	C479.520935,233.063507 477.647980,236.835754 472.971893,238.188416
	C468.873199,239.374054 464.905579,237.251328 463.431915,233.084412
	C461.996552,229.025650 464.129272,224.358032 468.289429,222.928726
	C472.543823,221.467041 475.765106,222.997467 478.112061,227.193390
z"/>
<path fill="#dc143c" opacity="1.000000" stroke="none"
	d="
M488.996033,143.103699
	C491.308899,139.043213 494.422638,137.235184 498.709351,138.492844
	C502.326080,139.553940 504.087799,142.321136 504.173035,145.972641
	C504.259247,149.664536 502.359863,152.182190 498.973083,153.701370
	C493.935760,155.960938 486.383606,150.526688 488.996033,143.103699
z"/>
<path fill="#dc143c" opacity="1.000000" stroke="none"
	d="
M477.919250,201.677917
	C483.744873,203.190506 486.045654,206.268158 485.171478,210.831909
	C484.406006,214.828079 480.593719,217.657425 476.393127,217.346878
	C472.429169,217.053818 469.281097,213.735214 469.197571,209.761627
	C469.105011,205.355270 472.016693,202.516968 477.919250,201.677917
z"/>
<path fill="#dc143c" opacity="1.000000" stroke="none"
	d="
M508.517944,130.338593
	C505.071472,133.727722 501.549500,134.248306 497.883148,131.713196
	C494.758026,129.552292 494.059479,126.364372 495.137512,122.873184
	C496.256958,119.247978 499.063995,117.584236 502.689484,117.446091
	C508.998535,117.205681 512.015320,123.509247 508.517944,130.338593
z"/>
</svg>
